<?xml version="1.0" encoding="UTF-8" standalone="no"?>
<!-- Created with Inkscape (http://www.inkscape.org/) -->

<svg
   version="1.1"
   id="svg108"
   width="981.33331"
   height="522.66669"
   viewBox="0 0 981.33331 522.66669"
   sodipodi:docname="packagesmith.svg"
   inkscape:version="1.1.2 (0a00cf5339, 2022-02-04)"
   xmlns:inkscape="http://www.inkscape.org/namespaces/inkscape"
   xmlns:sodipodi="http://sodipodi.sourceforge.net/DTD/sodipodi-0.dtd"
   xmlns="http://www.w3.org/2000/svg"
   xmlns:svg="http://www.w3.org/2000/svg">
  <defs
     id="defs112" />
  <sodipodi:namedview
     id="namedview110"
     pagecolor="#ffffff"
     bordercolor="#666666"
     borderopacity="1.0"
     inkscape:pageshadow="2"
     inkscape:pageopacity="0.0"
     inkscape:pagecheckerboard="0"
     showgrid="false"
     inkscape:zoom="1.075068"
     inkscape:cx="430.67045"
     inkscape:cy="234.40379"
     inkscape:window-width="1268"
     inkscape:window-height="995"
     inkscape:window-x="8"
     inkscape:window-y="40"
     inkscape:window-maximized="0"
     inkscape:current-layer="g114" />
  <g
     inkscape:groupmode="layer"
     inkscape:label="Image"
     id="g114">
    <path
       style="fill:#000000;stroke-width:1.33333"
       d="m 311.99999,453.18155 c 0,-23.29801 0.23675,-25.90636 2.75868,-30.39353 2.45563,-4.36919 7.89767,-7.68484 49.53752,-30.18154 49.22704,-26.59581 56.52132,-31.57968 64.51997,-44.08357 12.80163,-20.01218 13.42895,-47.84523 1.50254,-66.66443 -5.29671,-8.35789 -16.31019,-17.67167 -26.67874,-22.56142 -17.0622,-8.04641 -22.4156,-8.94552 -57.30663,-9.62466 l -31.66667,-0.61639 v -10.528 -10.528 h -3.68943 c -24.06896,0 -70.04369,-5.35999 -96.99397,-11.30809 C 177.3363,208.6037 135.05156,190.68601 109.35103,172.35518 94.763362,161.95057 72.627308,140.58475 63.396856,128.00001 56.850728,119.07505 45.333332,97.507646 45.333332,94.174359 c 0,-1.033412 1.103952,-3.242254 2.453227,-4.908538 l 2.453226,-3.029606 100.213435,0.311389 100.21344,0.311391 v -7.405791 -7.405791 l 32.33333,-0.357038 32.33334,-0.357038 0.38173,-13.009657 0.38173,-13.009655 268.28493,0.342988 268.28493,0.342989 41.66666,28.571603 41.66667,28.571605 v 29.80604 29.80604 l -28.11971,-0.14262 c -22.63165,-0.1148 -28.55173,0.2299 -30.33333,1.76608 -1.21749,1.0498 -17.21363,14.70459 -35.54696,30.34399 -18.33333,15.63939 -36.63333,31.2528 -40.66667,34.69646 l -7.33333,6.2612 -22.66667,0.63684 c -24.52126,0.68894 -33.14726,2.52764 -48.73587,10.38836 -28.78002,14.51262 -42.36746,42.80755 -35.18684,73.27419 3.69353,15.67132 10.44536,27.50795 22.448,39.35356 10.80444,10.66311 10.82354,10.67445 57.23714,34 36.86032,18.52446 47.16504,24.27294 50,27.89244 3.55928,4.54426 3.57232,4.64519 4.00432,31 l 0.43341,26.4409 h -52.47013 -52.47013 l -7.04189,-8 -7.0419,-8 H 566.87964 431.24984 l -7.91652,8 -7.91652,8 h -51.70841 -51.7084 z m 256.04914,-80.86969 c 14.72979,-10.00638 25.28419,-18.19054 25.28419,-19.60602 -6.88562,-6.28613 -14.16156,-11.73269 -19.96803,-16.07998 l -13.39245,-10.04083 -10.69235,8.04082 c -6.60086,4.49827 -18.54318,12.99107 -23.94717,17.50814 0,0.51217 5.39243,4.94625 11.98317,9.85349 17.21886,12.8206 20.51996,15.10388 22.01683,15.22851 0.73333,0.0611 4.65545,-2.14581 8.71581,-4.90413 z m -40.07014,-42.91479 c 2.94488,-8.93646 5.32968,-17.55662 5.29956,-19.15591 -0.0377,-2.00028 -2.75138,-4.90089 -8.6949,-9.29383 -4.75205,-3.51229 -9.38777,-6.6729 -10.30158,-7.02357 -0.91383,-0.35067 -8.25112,4.16223 -16.30512,10.02864 -8.054,5.86643 -15.84363,11.51623 -17.31029,12.55513 -1.46667,1.03891 -2.36667,2.1665 -2,2.50574 0.36666,0.33925 8.16666,6.14237 17.33333,12.89582 9.16666,6.75346 17.63228,13.05857 18.81246,14.01135 3.32999,2.68834 5.76202,3.17712 6.8332,1.37331 0.53846,-0.90672 3.38846,-8.96023 6.33334,-17.89668 z m 77.09918,16.1428 c 2.707,-2.0864 8.82182,-6.51004 13.58848,-9.8303 4.76667,-3.32025 11.82874,-8.53668 15.69348,-11.59205 l 7.0268,-5.55523 -16.99856,-12.64005 c -9.34921,-6.95203 -17.67994,-12.37857 -18.51274,-12.059 -0.8328,0.31957 -5.83808,3.73587 -11.12286,7.59176 -7.94897,5.79977 -9.46164,7.48869 -8.75738,9.77787 0.46821,1.52193 1.35809,4.56714 1.97752,6.76714 0.98638,2.59231 3.29236,8.84642 11.4855,31.33334 0.38387,0 2.91276,-1.70707 5.61976,-3.79348 z m -33.07818,-28.00622 c 4.66373,-3.42928 9.28534,-12.0298 9.3114,-17.32792 0.0415,-8.43492 -6.40546,-16.71076 -15.40714,-19.77794 -5.28145,-1.79956 -6.50281,-1.77662 -12.56249,0.23609 -9.78205,3.24907 -13.34177,8.44961 -13.34177,19.49153 0,7.59428 0.46506,9.13455 4.08348,13.52432 2.2459,2.72468 5.9959,5.53796 8.33333,6.25172 5.79408,1.76932 15.53865,0.57618 19.58319,-2.3978 z m -28,-40.10846 c 0,-0.68283 -4.95,-4.70436 -11,-8.93676 -6.05,-4.23239 -18.02554,-12.97371 -26.61228,-19.42517 -8.58676,-6.45145 -15.92989,-11.72992 -16.31809,-11.72992 -0.3882,0 -1.76267,-0.86061 -3.05439,-1.91246 -1.29172,-1.05187 -10.14857,-7.62844 -19.68191,-14.61462 -9.53333,-6.98617 -18.05801,-13.32556 -18.94372,-14.08753 -0.88572,-0.76196 -1.90422,-1.38539 -2.26336,-1.38539 -0.35913,0 -5.88392,-3.9 -12.2773,-8.66666 -10.74166,-8.00858 -13.84895,-9.79451 -13.84895,-7.95979 0,0.62441 6.95389,15.24123 24.08533,50.62645 3.84686,7.94574 6.4503,11.51696 10.20608,14 2.77306,1.83334 5.64192,3.79666 6.37526,4.36294 0.73333,0.56628 7.33333,5.47901 14.66666,10.91719 l 13.33334,9.88758 27.66666,0.0828 c 16.25048,0.0487 27.66667,-0.42946 27.66667,-1.15868 z m 103.00473,-10.74952 c 8.98073,-6.59507 17.50064,-12.89507 18.93312,-14.00001 1.43249,-1.10494 2.94604,-2.00898 3.36346,-2.00898 0.94186,0 2.27279,-2.58975 17.36364,-33.78616 6.68316,-13.81574 11.96758,-26.0168 11.74312,-27.11351 -0.29592,-1.44592 -2.89856,-0.1304 -9.46902,4.78617 -4.98352,3.7291 -9.37639,6.78016 -9.76191,6.78016 -0.38553,0 -1.51931,0.75 -2.51951,1.66667 -1.0002,0.91667 -9.7202,7.36667 -19.37776,14.33333 -9.65756,6.96667 -27.0021,19.56667 -38.54342,28 -11.54133,8.43334 -25.87849,18.87018 -31.86035,23.19299 -5.98185,4.32282 -10.8761,8.37282 -10.8761,9 0,0.62719 12.30213,1.14035 27.33806,1.14035 h 27.33807 z m -98.37256,-0.34232 c 0.46424,-2.38334 1.63431,-6.43334 2.60016,-9.00001 0.96587,-2.56666 2.82643,-7.90692 4.13459,-11.86724 2.31296,-7.00222 2.30853,-7.25024 -0.1609,-9.0041 -1.39664,-0.99195 -11.53936,-8.41208 -22.53936,-16.48918 -27.84592,-20.44674 -53.21803,-38.93211 -56.69481,-41.30615 -4.22525,-2.88512 -37.93801,-27.40753 -56.63852,-41.19844 -19.49684,-14.37817 -33.43816,-24.13489 -34.4862,-24.13489 -0.42962,0 -0.26761,1.35066 0.36003,3.00147 1.04957,2.76059 17.65488,37.6283 24.60489,51.6652 2.30122,4.64774 6.26319,8.47709 17.57935,16.99094 8.03473,6.04503 15.2086,11.46985 15.94193,12.05518 0.73334,0.58532 4.33334,3.10581 8,5.60109 3.66667,2.4953 12.75016,9.07047 20.18554,14.61151 7.43538,5.54104 14.85617,10.97461 16.49065,12.07461 3.2095,2.15999 33.88534,24.4401 47.99048,34.85587 4.76666,3.51988 9.369,6.41727 10.22738,6.43863 0.8584,0.0213 1.94056,-1.91116 2.40479,-4.29449 z m 39.4272,-5.33334 c 14.26527,-10.37932 45.7817,-33.25549 49.59405,-35.99779 50.57355,-36.37842 69.13829,-50.55736 71.14252,-54.33555 0.97255,-1.83333 5.14647,-10.53333 9.27539,-19.33333 4.12892,-8.8 9.55197,-20.23393 12.05122,-25.40874 5.64636,-11.69099 5.82372,-13.73639 0.9121,-10.51817 -1.9976,1.30888 -4.2476,2.87495 -5,3.48014 -1.82623,1.46895 -36.35771,26.56725 -54.70132,39.75822 -13.97437,10.3141 -29.25019,21.268 -41.33333,30.04873 -9.53334,6.92416 -25.672,18.73145 -35.86371,26.23844 -10.19169,7.50698 -21.07003,15.25966 -24.17407,17.22818 -3.10404,1.96854 -6.06548,4.26158 -6.58097,5.09567 -1.07003,1.73133 8.73111,33.40062 10.33887,33.40682 0.5794,0.003 7.03206,-4.34595 14.33925,-9.66262 z M 451.99999,151.87239 c 0,-0.80352 -0.87693,-3.05352 -1.94875,-5 -1.07181,-1.94648 -6.23156,-12.53905 -11.46609,-23.53905 -5.23453,-11 -12.3894,-26.000002 -15.89971,-33.333336 -3.5103,-7.333334 -7.70409,-16.183334 -9.31952,-19.666668 -3.25306,-7.014539 -4.72796,-7.818959 -6.11164,-3.333333 -0.50897,1.65 -4.74941,10.906348 -9.42318,20.569664 -4.67378,9.663315 -8.49778,18.472453 -8.49778,19.575873 0,1.10342 1.95,3.3754 4.33334,5.04884 7.54735,6.74768 16.57738,11.85579 23.28726,16.84192 22.52114,16.77389 32.90079,24.1622 34.04607,24.23419 0.55,0.0345 1,-0.59458 1,-1.3981 z m 231.74623,-8.78221 c 7.83958,-5.63375 20.12426,-14.63375 27.29932,-20.00001 7.17506,-5.36626 13.31819,-9.75683 13.65142,-9.75683 1.44464,0 5.96969,-4.74152 5.96969,-6.25526 0,-0.91445 -1.15361,-3.9311 -2.56357,-6.70368 -1.40998,-2.772586 -5.97878,-12.203324 -10.15291,-20.957198 -8.55924,-17.950175 -7.24655,-17.764711 -14.74935,-2.083865 -7.25886,15.171047 -19.15428,39.907813 -27.03878,56.227793 -7.72966,15.99941 -9.14468,19.77221 -7.41582,19.77221 0.41044,0 7.16044,-4.60943 15,-10.24316 z"
       id="path216"
       sodipodi:nodetypes="ssssssscccsssssscccccccccccccccsssscssssssscccccccccccsscccccssssssssssssssssscssssccssssssssssssssssssssssscsssssssssssssssscssssssssssssssssssssssssssccssscsssssssssccssssssssssss" />
  </g>
</svg>
