<?xml version="1.0" encoding="UTF-8" standalone="no"?>
<!-- Created with Inkscape (http://www.inkscape.org/) -->

<svg
   version="1.1"
   id="svg9"
   width="898.06451"
   height="436.64517"
   viewBox="0 0 898.06451 436.64517"
   sodipodi:docname="packagesmith-inverted.svg"
   inkscape:version="1.1.2 (0a00cf5339, 2022-02-04)"
   xmlns:inkscape="http://www.inkscape.org/namespaces/inkscape"
   xmlns:sodipodi="http://sodipodi.sourceforge.net/DTD/sodipodi-0.dtd"
   xmlns="http://www.w3.org/2000/svg"
   xmlns:svg="http://www.w3.org/2000/svg">
  <defs
     id="defs13" />
  <sodipodi:namedview
     id="namedview11"
     pagecolor="#ffffff"
     bordercolor="#666666"
     borderopacity="1.0"
     inkscape:pageshadow="2"
     inkscape:pageopacity="1"
     inkscape:pagecheckerboard="0"
     showgrid="false"
     inkscape:zoom="1.8000886"
     inkscape:cx="487.19824"
     inkscape:cy="188.32406"
     inkscape:window-width="2560"
     inkscape:window-height="1011"
     inkscape:window-x="0"
     inkscape:window-y="32"
     inkscape:window-maximized="1"
     inkscape:current-layer="g15" />
  <g
     inkscape:groupmode="layer"
     inkscape:label="Image"
     id="g15">
    <path
       style="fill:#000000;fill-opacity:0.998241;stroke-width:3.09677"
       d="M 0.08252333,243.87097 0.1650467,51.096775 9.952263,69.138436 C 31.073781,108.07364 84.921287,146.53568 144.4408,165.2005 c 25.47087,7.98746 78.16491,16.77139 109.49468,18.25242 16.61075,0.78522 17.05556,1.04463 17.97375,10.4821 l 0.9415,9.67695 34.67141,2.19527 c 37.73839,2.38946 55.91593,8.17704 71.4399,22.74589 16.39281,15.38422 21.33256,37.50992 14.14929,63.37633 -4.83394,17.40678 -18.92693,29.24297 -65.01096,54.60035 -63.4701,34.92394 -58.68102,29.82683 -58.68102,62.45525 v 27.66011 H 134.70968 0 Z M 380.90322,428.90323 388.1764,421.1613 h 138.45885 138.45888 l 5.0727,7.74193 5.07273,7.74194 H 524.4348 373.63005 Z m 401.4305,-19.10815 c -1.13512,-14.76755 -3.58259,-28.68006 -5.4388,-30.91667 -1.85621,-2.23659 -23.77824,-14.72492 -48.71557,-27.75184 -59.29815,-30.9765 -73.67312,-44.57535 -80.81723,-76.45372 -6.59003,-29.40602 7.9973,-57.1247 38.08682,-72.37222 12.29482,-6.23026 22.06607,-8.41729 42.919,-9.60627 l 26.99991,-1.53947 43.20681,-36.73873 43.20678,-36.73874 h 28.14154 28.14153 V 277.1613 436.64517 h -56.83346 -56.83348 z m -281.4305,-86.69565 c -8.09032,-5.9977 -14.70967,-12.04936 -14.70967,-13.44811 0,-1.39875 7.05974,-7.72551 15.68835,-14.05949 13.7262,-10.07595 16.53426,-11.05117 22.45161,-7.79734 12.33148,6.78079 27.61006,21.31297 25.68409,24.42929 -2.22442,3.59916 -29.98851,22.3318 -32.61303,22.00422 -0.98543,-0.12294 -8.41103,-5.13083 -16.50135,-11.12857 z m -43.95301,-32.32282 -20.87665,-15.80404 16.54386,-11.96703 c 9.09913,-6.58188 17.93742,-11.96188 19.64064,-11.95556 1.70323,0.006 7.09669,3.28287 11.98545,7.28123 l 8.88867,7.26977 -6.81857,20.48983 c -3.75023,11.26942 -7.1939,20.48984 -7.65266,20.48984 -0.45875,0 -10.22858,-7.11182 -21.71074,-15.80404 z m 94.56186,-3.37207 c -3.56389,-10.55329 -6.47982,-20.19709 -6.47982,-21.43069 0,-1.23359 4.8633,-5.24859 10.80737,-8.92221 l 10.80734,-6.67932 10.09589,7.00668 c 5.5527,3.85368 13.27398,9.41854 17.15839,12.36635 l 7.06253,5.35968 -17.90124,13.64273 c -9.8457,7.5035 -19.51435,14.58814 -21.48595,15.74365 -2.34091,1.37196 -5.83302,-4.55671 -10.06451,-17.08687 z m -44.77186,-15.11317 c -14.51579,-11.41812 -9.30485,-32.19924 8.87269,-35.38403 23.19571,-4.064 33.7082,30.5993 11.80546,38.9267 -10.3654,3.94093 -11.38675,3.76595 -20.67815,-3.54267 z m -79.99816,-52.16555 c -12.61459,-9.54949 -22.18666,-19.65499 -25.66644,-27.09677 -3.05218,-6.52727 -9.65456,-20.07512 -14.67202,-30.10634 -6.23167,-12.45887 -7.68359,-17.6864 -4.58168,-16.49609 5.86721,2.25146 116.24643,82.4972 118.50674,86.15444 0.96077,1.55459 -10.41356,2.77378 -25.87761,2.77378 h -27.59192 z m 112.20724,10.75042 c 10.55629,-10.42599 116.09831,-84.86388 116.93169,-82.47088 0.50226,1.44231 -4.55189,14.45158 -11.23148,28.90948 -10.92771,23.65299 -14.24618,27.878 -33.11696,42.16355 l -20.97232,15.87645 h -28.07275 c -24.51533,0 -27.49812,-0.56753 -23.53818,-4.4786 z M 443.9306,183.88732 c -32.11021,-23.19747 -62.30896,-45.84263 -67.10831,-50.32259 -8.45156,-7.88909 -34.60251,-58.752238 -31.69963,-61.655142 1.32381,-1.323797 50.97355,33.950052 136.97447,97.314052 l 34.61327,25.50246 -5.0108,15.66921 c -2.75594,8.61807 -5.99542,15.66921 -7.19879,15.66921 -1.20341,0 -28.46001,-18.97974 -60.57021,-42.1772 z m 86.11444,36.91167 c -1.67402,-3.12796 -3.98003,-10.67827 -5.12441,-16.77846 l -2.08076,-11.09126 84.07451,-61.16373 c 46.241,-33.640052 84.74484,-60.493407 85.56412,-59.674122 3.03409,3.03408 -23.03164,53.610392 -31.66387,61.438592 -8.39997,7.6176 -101.3375,75.74262 -119.43155,87.54565 -7.93391,5.17541 -8.4266,5.16339 -11.33804,-0.27667 z M 376.903,86.263307 C 342.98527,61.955261 343.92065,64.677874 359.09977,34.443934 l 8.36067,-16.652842 20.7412,42.722441 c 11.40765,23.497345 20.35488,43.793207 19.88268,45.101927 -0.47219,1.30871 -14.50377,-7.399756 -31.18132,-19.352153 z m 251.74448,19.965143 c 0.006,-5.78686 40.37785,-84.841085 42.62004,-83.455346 1.35353,0.836537 6.58008,10.139143 11.61454,20.672459 l 9.15357,19.151483 -9.24362,7.377222 C 664.04816,84.933493 628.64522,108.63866 628.64748,106.22845 Z M 0,23.604991 V 0 h 136.43612 136.43612 l -0.95225,13.161291 -0.95225,13.16129 -31.74194,0.882528 c -31.68414,0.880922 -31.74193,0.89683 -31.74193,8.738184 v 7.855658 L 108.48418,41.56875 C 30.336304,39.808287 8.4856573,40.167509 4.7422464,43.274265 0.55430734,46.749948 0,44.450862 0,23.604991 Z"
       id="path117"
       sodipodi:nodetypes="ccsssscssssscccccccccccccsssssscccccccccssssssssscscscsssssscsscssssssssssssscssssscsssssscssssscssssssscssscsscscscccccsscsss" />
  </g>
</svg>
